<svg width="100" height="100" xmlns="http://www.w3.org/2000/svg">
 <g id="Layer_1">
  <title>Layer 1</title>
  <path stroke-width="3" stroke="#e8e6e3" id="svg_2" d="m50.15422,10.33385c-6.56553,6.56942 -9.12312,15.53658 -7.89501,24.06708l12.17195,-12.17195c0.0156,-0.01949 0.05458,-0.03119 0.06238,-0.04679c0.81874,-1.5712 1.80903,-3.07613 3.12681,-4.39001c6.91641,-6.92421 18.13317,-6.92031 25.06128,0c6.92031,6.91251 6.92811,18.13706 0.0078,25.06516c-1.32558,1.32558 -2.8344,2.31197 -4.40951,3.13461c-0.0156,0.0078 -0.02339,0.02339 -0.03899,0.03899l-12.17585,12.17584c8.5305,1.23201 17.51327,-1.32558 24.07879,-7.8872c11.04131,-11.0413 11.03351,-28.94054 0,-39.98184c-11.04911,-11.0413 -28.94835,-11.0413 -39.98966,-0.0039zm-4.32763,68.09584c-0.81484,1.579 -1.80123,3.08392 -3.12291,4.4095c-6.92031,6.91641 -18.15266,6.91641 -25.07298,0c-6.92031,-6.91641 -6.92031,-18.14096 0,-25.06906c1.32168,-1.31778 2.82661,-2.30417 4.39781,-3.11901c0.0156,-0.02339 0.01949,-0.04679 0.04289,-0.06238l12.16806,-12.17584c-8.52661,-1.23201 -17.50157,1.33338 -24.0632,7.8911c-11.03741,11.03741 -11.03351,28.94054 0,39.98184c11.04521,11.03741 28.07109,10.16404 39.98966,0c6.56553,-6.56552 9.13091,-15.54048 7.88721,-24.07488l-12.18365,12.17584c-0.0117,0.02729 -0.02729,0.03509 -0.04289,0.04289zm-19.9461,-12.40587l8.56559,8.56559c2.09364,2.09364 5.52455,2.09364 7.61429,0l32.36757,-32.36755c2.10144,-2.08974 2.10144,-5.52455 0.0078,-7.61039l-8.57339,-8.56559c-2.08974,-2.10143 -5.52066,-2.10143 -7.6104,-0.0078l-32.36757,32.37145c-2.09754,2.09364 -2.09754,5.52455 -0.0039,7.61429z" fill="none"/>
 </g>
</svg>